<svg width="16" height="16" viewBox="0 0 16 16" xmlns="http://www.w3.org/2000/svg">
	<path stroke="null" id="cat-fill" fill="#000" d="m14.72107,4.87543c0.07305,-0.35257 0.16671,-0.66311 0.21563,-1.00343c0.04892,-0.34032 -0.21659,-0.55075 -0.57274,-0.3905c-0.35615,0.16025 -1.25289,0.46644 -1.32138,0.49643c-0.06849,0.02997 -0.11063,0.00144 -0.17868,-0.03568c-0.06806,-0.03712 -0.48751,-0.35715 -1.42821,-0.52847c-0.9407,-0.17132 -1.48332,-0.07964 -1.59172,-0.05438c-0.10841,0.02528 -0.20292,-0.00459 -0.28171,-0.0862c-0.07879,-0.08161 -0.58121,-0.58731 -0.83253,-0.85448c-0.25131,-0.26717 -0.63025,-0.19334 -0.73006,0.20665c-0.09982,0.39999 -0.29867,1.2092 -0.3238,1.32161c-0.02513,0.11241 -0.03055,0.18106 -0.14767,0.19224c-0.11712,0.01117 -0.49398,0.04475 -1.02974,0.10926c-0.53577,0.06453 -1.48676,0.27124 -2.20704,0.58779c-0.72028,0.31656 -1.27731,0.65519 -1.77315,1.09496c-0.49584,0.43978 -0.93009,0.93552 -1.21813,1.64686c-0.28804,0.71134 -0.34764,1.33721 -0.27134,2.05295c0.07629,0.71574 0.48929,1.57177 0.96303,2.14171c0.47375,0.56993 1.30049,1.22336 2.26617,1.65461c0.96569,0.43125 1.92362,0.64055 3.32755,0.73045c1.40393,0.08989 2.96602,-0.15406 3.79072,-0.42368c0.82471,-0.26961 1.78242,-0.7124 2.41805,-1.35535c0.63563,-0.64294 1.00193,-1.10963 1.19431,-2.07281c0.19238,-0.96317 0.04495,-2.01101 -0.57702,-2.76304c-0.62198,-0.75203 -1.613,-1.25609 -2.54735,-1.40807c-0.46717,-0.07598 -0.82322,-0.09661 -1.48039,-0.05977c-0.65716,0.03684 -1.01594,0.16761 -1.40292,0.31035c-0.38698,0.14274 -0.81004,0.43435 -0.98648,0.58364c-0.17644,0.14929 -0.26644,0.39649 -0.13957,0.57095c0.12688,0.17446 0.37468,0.14751 0.54874,0.04757c0.17406,-0.09993 0.56567,-0.43751 1.06666,-0.61943c0.50099,-0.18191 1.21715,-0.26872 1.72784,-0.2148c0.51069,0.05392 1.16281,0.21043 1.52581,0.40213c0.36299,0.19171 0.94942,0.55579 1.31075,1.17556c0.36133,0.61977 0.28294,1.787 0.07676,2.31038c-0.20618,0.52337 -0.47408,0.91401 -0.94841,1.3288c-0.47433,0.4148 -1.23266,0.85228 -2.21865,1.12385c-0.98599,0.27157 -1.55303,0.34964 -2.59733,0.36087c-1.0443,0.01123 -1.60184,-0.05953 -2.43972,-0.24985c-0.83788,-0.19032 -1.59696,-0.48482 -2.28039,-0.98257c-0.68343,-0.49775 -1.09213,-0.88327 -1.36418,-1.3266c-0.27205,-0.44335 -0.44712,-0.82019 -0.49507,-1.25835c-0.04795,-0.43816 -0.06747,-0.86503 0.08149,-1.39364c0.14896,-0.52862 0.37258,-0.91426 0.82982,-1.43176c0.45725,-0.51752 1.10287,-0.94646 1.86901,-1.30685c0.76615,-0.36038 1.44836,-0.5224 2.08275,-0.59852c0.63438,-0.07612 1.13293,-0.08663 1.29581,-0.1085c0.16288,-0.02187 0.32151,-0.11078 0.35932,-0.2714c0.03782,-0.16062 0.21311,-0.95249 0.2461,-1.09082c0.03299,-0.13831 0.0944,-0.10599 0.19566,-0.01327c0.10126,0.09272 0.47335,0.47701 0.58437,0.57217c0.11102,0.09516 0.27205,0.11224 0.4148,0.08052c0.14274,-0.03172 0.87106,-0.0976 1.575,0.01708c0.70393,0.11468 1.19192,0.42822 1.3615,0.54046c0.16957,0.11224 0.35274,0.16957 0.50409,0.10747c0.15133,-0.0621 0.70543,-0.29239 0.78474,-0.33998c0.0793,-0.04757 0.15232,-0.03904 0.12444,0.07756c-0.02789,0.11659 -0.25533,0.98052 -0.29384,1.18495c-0.03851,0.20443 0.0914,0.40176 0.2852,0.44675c0.1938,0.045 0.37504,-0.07489 0.42901,-0.2763c0.05397,-0.20141 0.15106,-0.60551 0.2241,-0.95808l0,0.00002z" />
</svg>
