<svg width="200" height="200" xmlns="http://www.w3.org/2000/svg" viewBox="0 0 600 600">
	<!-- Source Image - http://clipartmag.com/download-clipart-image#sleeping-cat-line-drawing-30.jpg -->
	<!-- Modified by - https://sleepycat.xyz/ -->
	<!-- Created with Method Draw - http://github.com/duopixel/Method-Draw/ -->
	<!-- CC BY-NC 4.0 Licence - Personal use only - Attribution required -->
	<path id="cat-line" stroke="#415163" stroke-linecap="round" stroke-width="36" fill="none" d="m535.51599,197.12857c1.26043,-7.78782 18.87193,-70.73625 16.34737,-72.74943c-2.52456,-2.01319 -56.01871,23.71429 -59.05572,23.86799c-3.037,0.1537 -18.70414,-17.02037 -62.89211,-25.86824c-44.18797,-8.84787 -68.73776,0.29519 -71.555,-1.69894c-2.81724,-1.99413 -40.04572,-41.15326 -42.47726,-40.5734c-2.43154,0.57986 -15.87063,64.77756 -18.00842,67.55576c-2.13779,2.77821 -35.81066,4.04634 -57.926,8.02199c-22.11534,3.97565 -56.9305,7.81038 -104.52897,34.98428c-47.59847,27.1739 -79.47399,71.77785 -87.09175,108.46143c-7.61775,36.68358 -0.14132,74.6702 20.70642,105.27459c20.84773,30.60439 56.17307,59.88545 87.60518,73.28238c31.43211,13.39693 81.47624,30.79918 159.61591,30.03779c78.13967,-0.76139 116.19693,-17.30376 141.92687,-29.08553c25.72994,-11.78177 55.91047,-29.94346 76.25895,-60.62162c20.34848,-30.67816 24.39557,-62.74245 18.32414,-94.49362c-6.07143,-31.75117 -22.51953,-56.17223 -55.34988,-77.09595c-32.83036,-20.92371 -68.99892,-23.26475 -104.54851,-22.14687c-35.54959,1.11789 -69.44812,17.6067 -85.993,33.72327" />
</svg>
