<svg width="200" height="200" xmlns="http://www.w3.org/2000/svg" viewBox="0 0 600 600">
	<!-- Source Image - http://clipartmag.com/download-clipart-image#sleeping-cat-line-drawing-30.jpg -->
	<!-- Modified by - https://sleepycat.xyz/ -->
	<!-- Created with Method Draw - http://github.com/duopixel/Method-Draw/ -->
	<!-- CC BY-NC 4.0 Licence - Personal use only - Attribution required -->
	<path id="cat-fill" fill="#415163" stroke="none" d="m557.11421,165.92081c2.79468,-13.48786 6.37773,-25.36781 8.24907,-38.38681c1.87134,-13.019 -8.28569,-21.06916 -21.91055,-14.93874c-13.62487,6.13042 -47.92981,17.84415 -50.55005,18.99091c-2.62023,1.14677 -4.23203,0.05499 -6.83559,-1.36513c-2.60356,-1.42011 -18.64997,-13.66286 -54.63649,-20.21676c-35.98652,-6.5539 -56.745,-3.04694 -60.89204,-2.08018c-4.14703,0.96675 -7.76278,-0.17577 -10.77681,-3.29763c-3.01403,-3.12186 -22.23451,-22.46767 -31.84867,-32.68858c-9.61418,-10.2209 -24.11012,-7.39623 -27.92869,7.90546c-3.81857,15.30168 -11.42565,46.25827 -12.38694,50.55856c-0.96129,4.30029 -1.16898,6.92658 -5.64937,7.35414c-4.4804,0.42755 -18.89718,1.71174 -39.39325,4.18008c-20.49608,2.46834 -56.87657,10.37639 -84.43098,22.48634c-27.55441,12.10992 -48.86399,25.06437 -67.8328,41.88813c-18.96882,16.82377 -35.5812,35.78867 -46.60002,63.00106c-11.01882,27.21239 -13.29892,51.15533 -10.3803,78.53601c2.91861,27.38068 18.71777,60.12887 36.84112,81.93169c18.12335,21.80281 49.75046,46.80019 86.69325,63.29764c36.94279,16.49745 73.58868,24.50455 127.29651,27.94335c53.70783,3.43879 113.46602,-5.89368 145.01547,-16.20792c31.54944,-10.31425 68.18716,-27.25328 92.50347,-51.84919c24.31631,-24.5959 38.32891,-42.44931 45.68871,-79.29572c7.3598,-36.84642 1.71988,-76.93212 -22.07408,-105.70119c-23.79397,-28.76907 -61.70599,-48.05222 -97.44975,-53.86619c-17.87187,-2.907 -31.49273,-3.69574 -56.63271,-2.28644c-25.13997,1.4093 -38.86497,6.4121 -53.66899,11.87258c-14.804,5.46049 -30.98863,16.61612 -37.73809,22.32733c-6.74946,5.71121 -10.19285,15.16798 -5.33912,21.8419c4.85372,6.67393 14.33364,5.64303 20.99251,1.8202c6.65887,-3.82283 21.63995,-16.73724 40.80532,-23.69627c19.16537,-6.95903 46.56234,-10.28009 66.09878,-8.21722c19.53644,2.06286 44.48374,8.05008 58.37012,15.38388c13.88638,7.33381 36.3204,21.26203 50.14309,44.97156c13.82268,23.70953 10.82397,68.36258 2.93662,88.38434c-7.88735,20.02175 -18.13626,34.96575 -36.28186,50.83381c-18.1456,15.86806 -47.15618,32.60421 -84.8755,42.99313c-37.71931,10.38891 -59.41191,13.37582 -99.36209,13.80521c-39.95018,0.42938 -61.27873,-2.27755 -93.33222,-9.55817c-32.0535,-7.28063 -61.09208,-18.54697 -87.23703,-37.58865c-26.14495,-19.04169 -41.7797,-33.78965 -52.18728,-50.74983c-10.40757,-16.96018 -17.10483,-31.37679 -18.93899,-48.13858c-1.83416,-16.76179 -2.58091,-33.09191 3.11761,-53.31436c5.69851,-20.22245 14.25321,-34.97504 31.74544,-54.7728c17.49222,-19.79776 42.19042,-36.20721 71.49966,-49.99377c29.30924,-13.78655 55.40756,-19.98444 79.67636,-22.89669c24.2688,-2.91226 43.34077,-3.31423 49.5719,-4.15078c6.23114,-0.83655 12.2993,-4.23788 13.74609,-10.38248c1.44679,-6.1446 8.15265,-36.43823 9.4149,-41.72953c1.26225,-5.2913 3.61118,-4.05451 7.48483,-0.50753c3.87367,3.54697 18.10829,18.24827 22.35533,21.88859c4.24704,3.64032 10.40758,4.29372 15.86806,3.08027c5.46048,-1.21344 33.32293,-3.73367 60.25198,0.6534c26.92905,4.38704 45.59736,16.38145 52.08459,20.67515c6.48725,4.2937 13.4946,6.48723 19.28402,4.11151c5.78942,-2.37572 26.98664,-11.18556 30.02023,-13.00572c3.0336,-1.82016 5.82727,-1.49335 4.76051,2.96703c-1.06676,4.46037 -9.7675,37.51 -11.24097,45.33065c-1.47347,7.82066 3.49628,15.36937 10.91027,17.09084c7.41399,1.72148 14.34743,-2.86508 16.41213,-10.57027c2.06469,-7.7052 5.7786,-23.16376 8.57328,-36.65162z" />
</svg>
