<svg width="200" height="200" viewBox="0 0 700 700" xmlns="http://www.w3.org/2000/svg">
	<!-- The original image comes from the Internet, if you know who the author is, please let me know. -->
	<!-- Created by - https://sleepycat.xyz/ -->
	<!-- Created with Method Draw - http://github.com/duopixel/Method-Draw/ -->
	<g fill="#fff">
		<ellipse id="svg_cat_background" cx="350" cy="350" rx="302" ry="302" />
	</g>
	<g fill="#000">
		<path id="svg_cat_body" d="m613.1987,200.17484c-2.4974,-4.39673 -18.76593,-32.26739 -31.51763,-46.76967c-12.7517,-14.50228 -39.66894,-41.4176 -69.39203,-59.45602c-29.72308,-18.03842 -52.31639,-27.58449 -82.68714,-36.08367c-30.37075,-8.49919 -61.23454,-9.7089 -64.42199,-9.83393c-3.18745,-0.12503 -4.25124,0.06242 -4.32869,1.65616c-0.07745,1.59375 0.32824,3.46949 -1.92166,7.59426c-2.2499,4.12477 -14.62508,21.87504 -14.62508,28.87506c0,7.00002 3.0001,10.00014 20.00015,8.00013c17.00005,-2.00001 31.99996,-7.25017 40.25,-8.25013c8.25003,-0.99995 10.75011,-0.99994 3.75009,4.50008c-7.00002,5.50001 -20.50009,21.25006 -23.0001,27.75008c-2.50001,6.50002 -8.24999,15.50003 -4.49992,23.2502c3.75007,7.75017 15.25021,27.00044 16.0001,35.25043c0.74989,8.24999 1.99989,18.87485 2.28109,27.87489c0.2812,9.00004 -2.53114,19.12488 -5.78127,24.87502c-3.25012,5.75013 -7.25001,14.2501 -5.99999,19.25011c1.25002,5.00001 2.81378,18.18712 2.6254,22.49977c-0.18838,4.31265 -0.99781,5.49848 -2.62544,6.93768c-1.62763,1.4392 -3.62689,3.75069 -9.6734,7.23482c-6.04651,3.48414 -12.70109,6.20234 -18.63875,8.7024c-5.93766,2.50006 -9.68795,3.12517 -12.18796,3.12517c-2.5,0 -14.75013,-1.25003 -20.75012,-4.75006c-5.99999,-3.50003 -23.25028,-8.50003 -33.25013,-6.00003c-9.99985,2.5 -23.49993,20.75 -16.24993,34.50003c7.25001,13.75004 25.24988,20.00001 49.24994,25.00003c24.00007,5.00001 46.75018,6.99996 64.00053,9.00017c17.25035,2.00021 39.00024,12.75018 42.00006,23.00018c2.99982,10.25001 0.49989,17.25043 -4.00041,24.00023c-4.5003,6.7498 -13.12512,11.68708 -24.34381,9.78083c-11.21869,-1.90626 -22.65609,-7.53117 -29.90596,-11.03113c-7.24987,-3.49996 -16.50024,-0.74995 -25.50019,3.00001c-8.99995,3.74996 -13.87491,5.56247 -19.99992,9.43747c-6.12501,3.875 -10.50007,6.31245 -10.25004,10.31253c0.25003,4.00008 0.37492,13.12516 1.74993,18.00015c1.37501,4.87499 2.5937,8.25004 0.73434,14.08207c-1.85937,5.83202 -5.60929,11.41773 -8.73431,18.82426c-3.12502,7.40653 -4.75023,31.09352 0.4999,47.59359c5.25013,16.50008 11.00035,23.25056 15.00013,35.50039c3.99978,12.24984 -4.06255,21.29146 -7.31261,25.92709c-3.25006,4.63563 -12.43731,15.98972 -17.68748,21.23967c-5.25017,5.24995 -9.75015,7.2499 -1.99994,6.99996c7.7502,-0.24995 24.25054,-2.75026 34.25049,-6.5001c9.99996,-3.74983 26.74997,-3.24989 29.4997,2.25017c2.74974,5.50006 -1.25038,14.00062 -6.2504,20.75049c-5.00003,6.74987 -9.56236,11.43725 -11.3123,16.4684c-1.74993,5.03115 -0.93759,7.03115 8.56257,6.53116c9.50015,-0.49998 41.01846,1.74342 85.13604,-12.13104c44.11757,-13.87446 73.9902,-33.81008 92.02262,-46.65519c18.03242,-12.84511 47.45695,-40.33088 67.95888,-70.0809c20.50193,-29.75002 33.13205,-53.13274 44.00786,-95.88372c10.87581,-42.75098 5.87528,-68.49992 -2.12464,-101.50007c-7.99992,-33.00015 -40.99951,-67.74932 -52.24979,-75.99979c-11.25027,-8.25047 -33.99964,-20.25019 -46.50048,-22.2504c-12.50083,-2.00021 -21.31275,-2.56254 -35.75018,-2.06251c-14.43743,0.50003 -20.24999,2.81252 -31.2498,1.81253c-10.99981,-0.99998 -24.49999,-5.74975 -33.00021,-16.50001c-8.50021,-10.75025 -9.24997,-29.00006 0.25004,-41.00014c9.50001,-12.00008 19.24995,-17.74999 40.74996,-20.25012c21.50001,-2.50012 50.74979,2.87476 70.75028,12.50012c20.0005,9.62536 33.73539,20.95265 42.95638,29.32047c9.22099,8.36782 15.05242,15.65104 17.11467,17.99423c2.06226,2.34319 5.43761,7.17544 5.25041,6.32607c-1.8306,-4.26375 -4.43047,-10.14319 -6.92787,-14.53993z" />
		<path id="svg_cat_nose_reverse" transform="rotate(180 377.483 278.536)" d="m374.3349,282.88837c1.93748,0.49999 3.31247,0.99999 4.93746,1.62498c1.62499,0.625 2.06249,1.12499 2.49999,-0.81249c0.4375,-1.93748 1.06249,-3.93747 1.31249,-4.99996c0.25,-1.06249 0.68749,-3.18748 1.37499,-4.87497c0.6875,-1.68749 0.99999,-2.24998 -1.24999,-1.49999c-2.24999,0.75 -5.06247,1.93749 -7.06245,3.43748c-1.99999,1.49999 -4.24997,3.18748 -5.37496,4.18747c-1.12499,0.99999 -1.1875,1.56249 0.93749,2.24998" />
		<path id="svg_cat_eye_reverse" transform="rotate(180 344.392 215.556)" d="m334.10492,204.99315c-1.6871,1.99953 -2.49941,3.18675 -2.87432,3.99906c-0.37491,0.81231 -0.81231,1.87456 0.56236,3.68662c1.37468,1.81206 3.24923,4.249 5.81112,6.7484c2.5619,2.4994 6.62344,4.68639 9.12285,6.06106c2.4994,1.37468 6.6859,2.74935 9.06034,3.62414c2.37444,0.87479 2.87432,0.56237 0.99977,-1.56213c-1.87456,-2.1245 -5.62367,-6.93585 -6.7484,-8.74792c-1.12473,-1.81207 -5.31124,-8.4355 -6.12356,-9.99763c-0.81231,-1.56212 -2.68685,-4.74888 -3.87407,-6.37349c-1.18722,-1.62461 -2.5619,-0.68733 -3.49918,0.18746" />
		<path id="svg_cat_beard_1_reverse" transform="rotate(157.855 237.369 257.971)" d="m183.46068,229.84709c4.72671,3.28988 9.06332,6.374 13.83289,9.45813c4.76956,3.08414 17.04275,12.14653 22.87669,15.31353c5.83395,3.16699 18.98434,10.232 26.69183,13.91954c7.70748,3.68753 23.12718,9.77197 29.29449,11.77218c6.16732,2.00021 21.15502,7.33599 23.86104,8.48135c2.70603,1.14537 2.26553,1.10251 0.20293,0.60246c-2.0626,-0.50005 -8.51924,-1.54112 -15.18661,-3.20796c-6.66736,-1.66684 -24.83465,-7.16668 -31.66837,-10.00024c-6.83371,-2.83357 -20.50472,-8.8356 -29.83785,-13.3355c-9.33313,-4.49991 -15.16927,-7.66782 -20.16961,-10.50148c-5.00034,-2.83365 -12.16763,-6.83359 -17.00141,-10.50076c-4.83378,-3.66717 -8.95932,-6.47846 -11.33452,-8.3342c-2.3752,-1.85574 -2.73107,-4.72858 -1.5018,-6.10398c1.22926,-1.3754 1.79231,-1.66685 4.95931,-0.33337" />
		<path id="svg_cat_beard_2_reverse" transform="rotate(170 242.536 227.138)" d="m188.62788,199.01398c4.72671,3.28988 9.06332,6.374 13.83289,9.45813c4.76956,3.08414 17.04275,12.14653 22.87669,15.31353c5.83395,3.16699 18.98434,10.232 26.69183,13.91954c7.70748,3.68753 23.12718,9.77197 29.29449,11.77218c6.16732,2.00021 21.15502,7.33599 23.86104,8.48135c2.70603,1.14537 2.26553,1.10251 0.20293,0.60246c-2.0626,-0.50005 -8.51924,-1.54112 -15.18661,-3.20796c-6.66736,-1.66684 -24.83465,-7.16668 -31.66837,-10.00024c-6.83371,-2.83357 -20.50472,-8.8356 -29.83785,-13.3355c-9.33313,-4.49991 -15.16927,-7.66782 -20.16961,-10.50148c-5.00034,-2.83365 -12.16763,-6.83359 -17.00141,-10.50076c-4.83378,-3.66717 -8.95932,-6.47846 -11.33452,-8.3342c-2.3752,-1.85574 -2.73107,-4.72858 -1.5018,-6.10398c1.22926,-1.3754 1.79231,-1.66685 4.95931,-0.33337" />
		<path id="svg_cat_beard_3_reverse" transform="rotate(-180 253.368 201.809)" d="m199.46042,173.68462c4.72671,3.28988 9.06332,6.374 13.83289,9.45813c4.76956,3.08414 17.04275,12.14653 22.87669,15.31353c5.83395,3.16699 18.98434,10.232 26.69183,13.91954c7.70748,3.68753 23.12718,9.77197 29.29449,11.77218c6.16732,2.00021 21.15502,7.33599 23.86104,8.48135c2.70603,1.14537 2.26553,1.10251 0.20293,0.60246c-2.0626,-0.50005 -8.51924,-1.54112 -15.18661,-3.20796c-6.66736,-1.66684 -24.83465,-7.16668 -31.66837,-10.00024c-6.83371,-2.83357 -20.50472,-8.8356 -29.83785,-13.3355c-9.33313,-4.49991 -15.16927,-7.66782 -20.16961,-10.50148c-5.00034,-2.83365 -12.16763,-6.83359 -17.00141,-10.50076c-4.83378,-3.66717 -8.95932,-6.47846 -11.33452,-8.3342c-2.3752,-1.85574 -2.73107,-4.72858 -1.5018,-6.10398c1.22926,-1.3754 1.79231,-1.66685 4.95931,-0.33337" />
		<path id="svg_cat_ear_reverse" transform="rotate(180 321.145 76.1749)" d="m321.45583,54.56964c2.12384,0 3.37306,0.43721 5.05986,1.62411c1.6868,1.1869 3.06071,2.56122 3.74775,3.56033c0.68703,0.99911 1.49914,2.56106 1.99887,3.56051c0.49972,0.99945 1.87427,1.93669 3.24835,1.74931c1.37408,-0.18738 4.56058,-0.37477 7.24632,-0.00007c2.68574,0.3747 5.62104,2.81119 6.93318,5.37217c1.31214,2.56098 1.81146,5.49658 1.06217,7.99532c-0.74929,2.49873 -3.24849,5.2472 -6.74648,7.43372c-3.49798,2.18653 -6.87056,3.43534 -12.30562,5.43452c-5.43506,1.99918 -7.87053,2.31131 -12.36837,3.43567c-4.49785,1.12435 -8.61947,1.74886 -11.80549,2.12367c-3.18602,0.37481 -7.1211,0.62479 -10.80681,0.81217c-3.6857,0.18738 -7.12126,0.43724 -4.7476,-2.12384c2.37366,-2.56108 5.68474,-8.18369 6.99617,-10.2444c1.31143,-2.06071 4.68488,-8.3077 5.99672,-11.36878c1.31184,-3.06108 2.87343,-6.74631 4.99727,-10.61919c2.12384,-3.87289 4.49754,-6.24659 8.49535,-8.24549" />
		<path id="svg_cat_tail" d="m134.35072,533.94997c4.66666,3.16666 18.83328,10.3333 28.49993,13.16663c9.66665,2.83334 30.49992,7.33332 44.83321,6.99999c14.33329,-0.33333 32.20825,-4.41666 39.49989,-8.49998c7.29164,-4.08332 13.08333,-7.91668 17.37497,-13.95832c4.29164,-6.04164 7.79164,-14.20827 5.62497,-25.20824c-2.16667,-10.99997 -6.66664,-16.99996 -13.66663,-22.49994c-6.99998,-5.49998 -14.12496,-8.33332 -22.83327,-8.83331c-8.70831,-0.49999 -16.66663,0 -25.6666,0.66666c-8.99997,0.66666 -15.12498,1.66667 -26.99992,0.5c-11.87494,-1.16667 -28.1666,-7.16664 -37.99991,-11.3333c-9.8333,-4.16665 -17.95827,-9.37497 -28.33325,-17.99995c-10.37498,-8.62498 -18.87496,-17.54164 -25.1666,-26.1666c-6.29164,-8.62496 -11.62497,-16.91662 -16.33329,-25.49993c-4.70832,-8.58331 -9.54165,-20.70831 -13.3333,-35.99993c-3.79165,-15.29162 -4.58326,-23.54159 -5.54159,-35.60404c-0.95832,-12.06245 -0.99917,-20.35463 -1.04077,-22.29219c-0.0416,-1.93756 0.00002,-6.93712 -0.66693,-4.47888c-0.66695,2.45824 -3.81311,15.16667 -4.64645,32.25019c-0.83334,17.08352 -1.1042,22.95828 -0.27087,38.79157c0.83333,15.83328 3.08332,29.45825 5.91664,43.95822c2.83332,14.49997 6.87497,27.29161 9.54163,36.62492c2.66666,9.3333 11.12496,26.2916 14.79162,32.62491c3.66665,6.33332 19.1465,23.89719 27.6046,30.89622c8.4581,6.99903 23.6647,18.35268 28.26872,21.54006" />
	</g>
	<g fill="#fff">
		<path id="svg_cat_nose" d="m326.28944,424.87211c1.93748,0.49999 3.31247,0.99999 4.93746,1.62498c1.62499,0.625 2.06249,1.12499 2.49999,-0.81249c0.4375,-1.93748 1.06249,-3.93747 1.31249,-4.99996c0.25,-1.06249 0.68749,-3.18748 1.37499,-4.87497c0.6875,-1.68749 0.99999,-2.24998 -1.24999,-1.49999c-2.24999,0.75 -5.06247,1.93749 -7.06245,3.43748c-1.99999,1.49999 -4.24997,3.18748 -5.37496,4.18747c-1.12499,0.99999 -1.1875,1.56249 0.93749,2.24998" />
		<path id="svg_cat_eye" d="m353.10444,472.99313c-1.6871,1.99953 -2.49941,3.18675 -2.87432,3.99906c-0.37491,0.81231 -0.81231,1.87456 0.56236,3.68662c1.37468,1.81206 3.24923,4.249 5.81112,6.7484c2.5619,2.4994 6.62344,4.68639 9.12285,6.06106c2.4994,1.37468 6.6859,2.74935 9.06034,3.62414c2.37444,0.87479 2.87432,0.56237 0.99977,-1.56213c-1.87456,-2.1245 -5.62367,-6.93585 -6.7484,-8.74792c-1.12473,-1.81207 -5.31124,-8.4355 -6.12356,-9.99763c-0.81231,-1.56212 -2.68685,-4.74888 -3.87407,-6.37349c-1.18722,-1.62461 -2.5619,-0.68733 -3.49918,0.18746" />
		<path id="svg_cat_beard_1" d="m399.95939,467.84766c4.72671,3.28988 9.06332,6.374 13.83289,9.45813c4.76956,3.08414 17.04275,12.14653 22.87669,15.31353c5.83395,3.16699 18.98434,10.232 26.69183,13.91954c7.70748,3.68753 23.12718,9.77197 29.29449,11.77218c6.16732,2.00021 21.15502,7.33599 23.86104,8.48135c2.70603,1.14537 2.26553,1.10251 0.20293,0.60246c-2.0626,-0.50005 -8.51924,-1.54112 -15.18661,-3.20796c-6.66736,-1.66684 -24.83465,-7.16668 -31.66837,-10.00024c-6.83371,-2.83357 -20.50472,-8.8356 -29.83785,-13.3355c-9.33313,-4.49991 -15.16927,-7.66782 -20.16961,-10.50148c-5.00034,-2.83365 -12.16763,-6.83359 -17.00141,-10.50076c-4.83378,-3.66717 -8.95932,-6.47846 -11.33452,-8.3342c-2.3752,-1.85574 -2.73107,-4.72858 -1.5018,-6.10398c1.22926,-1.3754 1.79231,-1.66685 4.95931,-0.33337" />
		<path id="svg_cat_beard_2" transform="rotate(-9.7661 465.035 472.139)" d="m411.12656,444.01452c4.72671,3.28988 9.06332,6.374 13.83289,9.45813c4.76956,3.08414 17.04275,12.14653 22.87669,15.31353c5.83395,3.16699 18.98434,10.232 26.69183,13.91954c7.70748,3.68753 23.12718,9.77197 29.29449,11.77218c6.16732,2.00021 21.15502,7.33599 23.86104,8.48135c2.70603,1.14537 2.26553,1.10251 0.20293,0.60246c-2.0626,-0.50005 -8.51924,-1.54112 -15.18661,-3.20796c-6.66736,-1.66684 -24.83465,-7.16668 -31.66837,-10.00024c-6.83371,-2.83357 -20.50472,-8.8356 -29.83785,-13.3355c-9.33313,-4.49991 -15.16927,-7.66782 -20.16961,-10.50148c-5.00034,-2.83365 -12.16763,-6.83359 -17.00141,-10.50076c-4.83378,-3.66717 -8.95932,-6.47846 -11.33452,-8.3342c-2.3752,-1.85574 -2.73107,-4.72858 -1.5018,-6.10398c1.22926,-1.3754 1.79231,-1.66685 4.95931,-0.33337" />
		<path id="svg_cat_beard_3" transform="rotate(-21.2484 469.867 442.309)" d="m415.95939,414.18429c4.72671,3.28988 9.06332,6.374 13.83289,9.45813c4.76956,3.08414 17.04275,12.14653 22.87669,15.31353c5.83395,3.16699 18.98434,10.232 26.69183,13.91954c7.70748,3.68753 23.12718,9.77197 29.29449,11.77218c6.16732,2.00021 21.15502,7.33599 23.86104,8.48135c2.70603,1.14537 2.26553,1.10251 0.20293,0.60246c-2.0626,-0.50005 -8.51924,-1.54112 -15.18661,-3.20796c-6.66736,-1.66684 -24.83465,-7.16668 -31.66837,-10.00024c-6.83371,-2.83357 -20.50472,-8.8356 -29.83785,-13.3355c-9.33313,-4.49991 -15.16927,-7.66782 -20.16961,-10.50148c-5.00034,-2.83365 -12.16763,-6.83359 -17.00141,-10.50076c-4.83378,-3.66717 -8.95932,-6.47846 -11.33452,-8.3342c-2.3752,-1.85574 -2.73107,-4.72858 -1.5018,-6.10398c1.22926,-1.3754 1.79231,-1.66685 4.95931,-0.33337" />
		<path id="svg_cat_ear" d="m388.4559,600.57017c2.12384,0 3.37306,0.43721 5.05986,1.62411c1.6868,1.1869 3.06071,2.56122 3.74775,3.56033c0.68703,0.99911 1.49914,2.56106 1.99887,3.56051c0.49972,0.99945 1.87427,1.93669 3.24835,1.74931c1.37408,-0.18738 4.56058,-0.37477 7.24632,-0.00007c2.68574,0.3747 5.62104,2.81119 6.93318,5.37217c1.31214,2.56098 1.81146,5.49658 1.06217,7.99532c-0.74929,2.49873 -3.24849,5.2472 -6.74648,7.43372c-3.49798,2.18653 -6.87056,3.43534 -12.30562,5.43452c-5.43506,1.99918 -7.87053,2.31131 -12.36837,3.43567c-4.49785,1.12435 -8.61947,1.74886 -11.80549,2.12367c-3.18602,0.37481 -7.1211,0.62479 -10.80681,0.81217c-3.6857,0.18738 -7.12126,0.43724 -4.7476,-2.12384c2.37366,-2.56108 5.68474,-8.18369 6.99617,-10.2444c1.31143,-2.06071 4.68488,-8.3077 5.99672,-11.36878c1.31184,-3.06108 2.87343,-6.74631 4.99727,-10.61919c2.12384,-3.87289 4.49754,-6.24659 8.49535,-8.24549" />
	</g>
</svg>
